<svg width="470" height="96" viewBox="0 0 470 96" fill="none" xmlns="http://www.w3.org/2000/svg">
<g clip-path="url(#clip0_7003_14443)">
<path d="M59.9359 94.0793L41.8586 67.9602H21.9068V94.0793H0.207031V0.299011H40.7891C49.0918 0.299011 56.3021 1.67915 62.4198 4.45092C68.5376 7.2227 73.241 11.1446 76.5529 16.2396C79.8532 21.3346 81.5092 27.3612 81.5092 34.3194C81.5092 41.2776 79.8302 47.2927 76.4839 52.3417C73.1375 57.3907 68.3766 61.255 62.2244 63.9348L83.2571 94.0793H59.9359ZM54.4391 22.2087C51.0467 19.3909 46.0904 17.9878 39.5702 17.9878H21.8838V50.674H39.5702C46.0904 50.674 51.0467 49.2479 54.4391 46.3841C57.8315 43.5318 59.5335 39.5064 59.5335 34.3309C59.5335 29.1554 57.8315 25.015 54.4391 22.2087Z" fill="black"/>
<path d="M194.171 92.9407C188.456 91.4685 183.902 89.6168 180.509 87.3856L187.478 72.3766C190.698 74.4353 194.573 76.103 199.127 77.4026C203.681 78.7023 208.143 79.3463 212.524 79.3463C221.367 79.3463 225.783 77.1611 225.783 72.7792C225.783 70.7205 224.576 69.2483 222.172 68.3627C219.757 67.4656 216.055 66.7066 211.052 66.0855C205.164 65.1884 200.289 64.1648 196.448 63.0032C192.607 61.8416 189.283 59.7829 186.466 56.8386C183.649 53.8943 182.246 49.6964 182.246 44.2449C182.246 39.6904 183.557 35.6535 186.202 32.1227C188.835 28.5918 192.676 25.8545 197.724 23.8878C202.772 21.9211 208.729 20.9435 215.606 20.9435C220.7 20.9435 225.76 21.5071 230.809 22.6227C235.857 23.7383 240.031 25.2795 243.332 27.2462L236.363 42.1171C230.027 38.5518 223.104 36.7576 215.606 36.7576C211.144 36.7576 207.786 37.3787 205.555 38.6323C203.324 39.8859 202.209 41.4961 202.209 43.4513C202.209 45.6825 203.416 47.2466 205.831 48.1437C208.246 49.0408 212.076 49.8804 217.354 50.6855C223.242 51.6746 228.072 52.7212 231.82 53.8368C235.569 54.9524 238.835 56.9881 241.595 59.9324C244.367 62.8767 245.746 66.9826 245.746 72.2616C245.746 76.7241 244.401 80.7035 241.733 84.1883C239.054 87.6731 235.144 90.3759 230.015 92.2966C224.875 94.2173 218.78 95.1719 211.731 95.1719C205.751 95.1719 199.898 94.4358 194.182 92.9637V92.9407H194.171Z" fill="black"/>
<path d="M418.114 92.9407C412.399 91.4685 407.845 89.6168 404.452 87.3856L411.421 72.3766C414.63 74.4353 418.516 76.103 423.07 77.4026C427.624 78.7023 432.086 79.3463 436.467 79.3463C445.31 79.3463 449.726 77.1611 449.726 72.7792C449.726 70.7205 448.519 69.2483 446.104 68.3627C443.689 67.4656 439.986 66.7066 434.984 66.0855C429.096 65.1884 424.22 64.1648 420.379 63.0032C416.538 61.8416 413.215 59.7829 410.398 56.8386C407.58 53.8943 406.177 49.6964 406.177 44.2449C406.177 39.6904 407.488 35.6535 410.133 32.1227C412.767 28.5918 416.607 25.8545 421.656 23.8878C426.704 21.9211 432.661 20.9435 439.538 20.9435C444.632 20.9435 449.692 21.5071 454.74 22.6227C459.788 23.7383 463.963 25.2795 467.263 27.2462L460.294 42.1171C453.958 38.5518 447.035 36.7576 439.538 36.7576C435.076 36.7576 431.718 37.3787 429.487 38.6323C427.256 39.8859 426.141 41.4961 426.141 43.4513C426.141 45.6825 427.348 47.2466 429.752 48.1437C432.166 49.0408 435.996 49.8804 441.274 50.6855C447.162 51.6746 451.992 52.7212 455.741 53.8368C459.489 54.9524 462.744 56.9881 465.515 59.9324C468.287 62.8767 469.667 66.9826 469.667 72.2616C469.667 76.7241 468.333 80.7035 465.653 84.1883C462.974 87.6731 459.064 90.3759 453.935 92.2966C448.795 94.2173 442.7 95.1719 435.651 95.1719C429.671 95.1719 423.818 94.4358 418.102 92.9637V92.9407H418.114Z" fill="black"/>
<path d="M331.096 22.0016H310.202V59.6449C310.202 71.261 305.337 77.0576 295.597 77.0576C285.868 77.0576 280.993 71.2495 280.993 59.6449V22.0016H260.098V62.7272C260.098 68.1902 260.822 72.9632 262.271 77.0576C265.986 87.9837 275.3 95.4939 295.597 95.4939C315.894 95.4939 325.209 87.9952 328.923 77.0576C330.36 72.9632 331.096 68.1902 331.096 62.7272V22.0016Z" fill="black"/>
<path d="M164.191 38.9543C160.845 33.2843 156.245 28.8678 150.392 25.6935C144.55 22.5192 138.007 20.9435 130.773 20.9435C123.54 20.9435 117.33 22.4617 111.615 25.498C105.9 28.5343 101.415 32.8932 98.149 38.5633C94.8947 44.2333 93.2617 50.8235 93.2617 58.3222C93.2617 58.5868 93.3997 60.4615 93.6642 63.9463H148.184C147.206 68.4087 144.883 71.9396 141.215 74.5274C137.558 77.1151 133.004 78.4147 127.554 78.4147C123.805 78.4147 120.481 77.8627 117.572 76.7356C114.674 75.62 111.972 73.8603 109.465 71.445L98.3445 83.4982C105.129 91.273 115.042 95.1489 128.082 95.1489C136.213 95.1489 143.4 93.5617 149.644 90.3989C155.9 87.2246 160.718 82.8312 164.111 77.2071C167.503 71.5831 169.205 65.1999 169.205 58.0462C169.205 50.8925 167.526 44.6244 164.18 38.9543H164.191ZM118.848 40.829C122.068 38.1032 125.99 36.7461 130.635 36.7461C135.281 36.7461 139.341 38.0917 142.56 40.76C145.47 43.1867 147.344 46.4301 148.207 50.467H113.214C114.076 46.5106 115.95 43.2903 118.86 40.829H118.848Z" fill="black"/>
<path d="M391.929 39.978L398.806 21.0701C397.541 20.9551 396.242 20.8976 394.896 20.9206C389.986 20.9896 385.559 21.8292 381.453 23.4853C377.348 25.1415 373.472 28.1548 371.058 31.5016V21.9902H351.094V94.0678H371.989V58.4373C371.989 52.1577 374.312 47.7872 377.21 44.843C380.303 41.7031 384.846 40.2655 389.261 40.001C390.193 39.9435 391.078 39.9435 391.918 39.9665L391.929 39.978Z" fill="black"/>
</g>
<defs>
<clipPath id="clip0_7003_14443">
<rect width="470" height="96" fill="white"/>
</clipPath>
</defs>
</svg>